<?xml version="1.0" encoding="UTF-8" standalone="no"?>
<!DOCTYPE svg PUBLIC "-//W3C//DTD SVG 1.1//EN" "http://www.w3.org/Graphics/SVG/1.1/DTD/svg11.dtd">
<!-- Created with Vectornator (http://vectornator.io/) -->
<svg height="100%" stroke-miterlimit="10" style="fill-rule:nonzero;clip-rule:evenodd;stroke-linecap:round;stroke-linejoin:round;" version="1.1" viewBox="0 0 300 300" width="100%" xml:space="preserve" xmlns="http://www.w3.org/2000/svg" xmlns:vectornator="http://vectornator.io" xmlns:xlink="http://www.w3.org/1999/xlink">
<defs>
<linearGradient gradientTransform="matrix(1 0 0 1 20 90)" gradientUnits="userSpaceOnUse" id="LinearGradient" x1="150.402" x2="150.402" y1="92.0309" y2="278.654">
<stop offset="0" stop-color="#108bfe" stop-opacity="0.298623"/>
<stop offset="1" stop-color="#108bfe" stop-opacity="0.101481"/>
</linearGradient>
<radialGradient cx="42359.4" cy="222.5" gradientTransform="matrix(-2.63536e-08 -1 0.602899 -4.37114e-08 20.5119 90.5119)" gradientUnits="userSpaceOnUse" id="RadialGradient" r="87921.5">
<stop offset="0" stop-color="#108bfe" stop-opacity="0.618635"/>
<stop offset="1" stop-color="#ffffff" stop-opacity="0.0420673"/>
</radialGradient>
<radialGradient cx="1866" cy="723.999" gradientTransform="matrix(-1.2489e-08 1 -1.0638 -1.62751e-07 21.0319 90)" gradientUnits="userSpaceOnUse" id="RadialGradient_2" r="1680">
<stop offset="0" stop-color="#108bfe"/>
<stop offset="1" stop-color="#78beff"/>
</radialGradient>
<radialGradient cx="1792" cy="710.999" gradientTransform="matrix(-1.2489e-08 1 -1.0638 -1.62751e-07 21.0319 90)" gradientUnits="userSpaceOnUse" id="RadialGradient_3" r="1680">
<stop offset="0" stop-color="#108bfe"/>
<stop offset="1" stop-color="#78beff"/>
</radialGradient>
<linearGradient gradientTransform="matrix(1 0 0 1 70 8)" gradientUnits="userSpaceOnUse" id="LinearGradient_2" x1="154.5" x2="154.5" y1="77.8985" y2="108.636">
<stop offset="0" stop-color="#50bdff" stop-opacity="0.723574"/>
<stop offset="0.982705" stop-color="#0055d3" stop-opacity="0.812584"/>
</linearGradient>
<linearGradient gradientTransform="matrix(1 0 0 1 70 8)" gradientUnits="userSpaceOnUse" id="LinearGradient_3" x1="88" x2="88" y1="76.8594" y2="89.1543">
<stop offset="0" stop-color="#50bdff" stop-opacity="0.948447"/>
<stop offset="0.983699" stop-color="#005fec" stop-opacity="0.916513"/>
</linearGradient>
<linearGradient gradientTransform="matrix(-1 0 0 1 380 8)" gradientUnits="userSpaceOnUse" id="LinearGradient_4" x1="225" x2="225" y1="76.9393" y2="89.9574">
<stop offset="0" stop-color="#50bdff" stop-opacity="0.94782"/>
<stop offset="1" stop-color="#005fec" stop-opacity="0.853876"/>
</linearGradient>
<linearGradient gradientTransform="matrix(1 0 0 1 70 8)" gradientUnits="userSpaceOnUse" id="LinearGradient_5" x1="154.5" x2="154.5" y1="95.2417" y2="185">
<stop offset="0" stop-color="#07c8ff" stop-opacity="0.697013"/>
<stop offset="1" stop-color="#108bfe" stop-opacity="0.786623"/>
</linearGradient>
<linearGradient gradientTransform="matrix(1 0 0 1 0 0)" gradientUnits="userSpaceOnUse" id="LinearGradient_6" x1="70" x2="239" y1="92.75" y2="92.75">
<stop offset="0" stop-color="#07c8ff" stop-opacity="0.61289"/>
<stop offset="1" stop-color="#108bfe" stop-opacity="0.756864"/>
</linearGradient>
</defs>
<g id="页面-1" vectornator:layerName="页面-1">
<g opacity="1">
<g opacity="1">
<clipPath id="ClipPath">
<path d="M0 0L300 0L300 0L300 300L300 300L0 300L0 300L0 0L0 0Z"/>
</clipPath>
<g clip-path="url(#ClipPath)">
<path d="M159.5 279.633C253 278.633 272 251.633 280.216 210.092C287 163.633 234.225 150.633 167 150.633C128 150.633 118.992 122.273 93 105.633C57.6854 83.025 20 77.6335 20 140.133C20 261.633 82.4652 280.457 159.5 279.633Z" fill="url(#LinearGradient)" fill-rule="evenodd" opacity="1" stroke="none"/>
<g opacity="1">
<clipPath id="ClipPath_2">
<path d="M159.5 279.633C253 278.633 272 251.633 280.216 210.092C287 163.633 234.225 150.633 167 150.633C128 150.633 118.992 122.273 93 105.633C57.6854 83.025 20 77.6335 20 140.133C20 261.633 82.4652 280.457 159.5 279.633Z"/>
</clipPath>
<g clip-path="url(#ClipPath_2)">
<path d="M-22 326.5C-22 269.062 55.2309 222.5 150.5 222.5C245.769 222.5 323 269.062 323 326.5C323 383.938 245.769 430.5 150.5 430.5C55.2309 430.5-22 383.938-22 326.5Z" fill="url(#RadialGradient)" fill-rule="evenodd" opacity="1" stroke="none"/>
</g>
</g>
<g opacity="1">
<clipPath id="ClipPath_3">
<path d="M159.5 279.633C253 278.633 272 251.633 280.216 210.092C287 163.633 234.225 150.633 167 150.633C128 150.633 118.992 122.273 93 105.633C57.6854 83.025 20 77.6335 20 140.133C20 261.633 82.4652 280.457 159.5 279.633Z"/>
</clipPath>
<g clip-path="url(#ClipPath_3)">
<path d="M227.355 206.178C227.47 206.301 227.565 206.48 227.63 206.697L238 240.657L237.923 240.658C237.974 240.774 238 240.892 238 241.012C238 241.791 236.904 242.499 235.109 243.031L234.665 243.155L234.665 243.155L234.195 243.272L234.195 243.272L233.701 243.382C233.616 243.4 233.531 243.417 233.445 243.434L232.916 243.532C232.826 243.547 232.736 243.562 232.644 243.577L232.084 243.662L232.084 243.662L231.504 243.739L231.504 243.739L230.906 243.806C230.805 243.817 230.703 243.827 230.6 243.836L229.977 243.889L229.977 243.889L229.338 243.932C229.231 243.939 229.122 243.945 229.014 243.95L228.354 243.978L228.354 243.978L227.683 243.994L227.683 243.994L227 244L227 244L226.317 243.994L226.317 243.994L225.646 243.978L225.646 243.978L224.986 243.95L224.986 243.95L224.341 243.912L224.341 243.912L223.709 243.864C223.606 243.855 223.502 243.846 223.4 243.836L222.793 243.774L222.793 243.774L222.204 243.702L222.204 243.702L221.634 243.621C221.54 243.607 221.448 243.592 221.356 243.577L220.817 243.484C220.729 243.467 220.641 243.451 220.555 243.434L220.049 243.328C219.967 243.31 219.885 243.291 219.805 243.272L219.335 243.155L219.335 243.155L218.891 243.031C217.096 242.499 216 241.791 216 241.012C216 240.892 216.026 240.774 216.077 240.658C216.054 240.658 216.027 240.654 216 240.645L226.366 206.697C226.564 206.037 227.006 205.805 227.355 206.178Z" fill="#78beff" fill-opacity="0.768469" fill-rule="evenodd" opacity="1" stroke="none"/>
<g opacity="1">
<clipPath id="ClipPath_4">
<path d="M227.355 206.178C227.47 206.301 227.565 206.48 227.63 206.697L238 240.657L237.923 240.658C237.974 240.774 238 240.892 238 241.012C238 241.791 236.904 242.499 235.109 243.031L234.665 243.155L234.665 243.155L234.195 243.272L234.195 243.272L233.701 243.382C233.616 243.4 233.531 243.417 233.445 243.434L232.916 243.532C232.826 243.547 232.736 243.562 232.644 243.577L232.084 243.662L232.084 243.662L231.504 243.739L231.504 243.739L230.906 243.806C230.805 243.817 230.703 243.827 230.6 243.836L229.977 243.889L229.977 243.889L229.338 243.932C229.231 243.939 229.122 243.945 229.014 243.95L228.354 243.978L228.354 243.978L227.683 243.994L227.683 243.994L227 244L227 244L226.317 243.994L226.317 243.994L225.646 243.978L225.646 243.978L224.986 243.95L224.986 243.95L224.341 243.912L224.341 243.912L223.709 243.864C223.606 243.855 223.502 243.846 223.4 243.836L222.793 243.774L222.793 243.774L222.204 243.702L222.204 243.702L221.634 243.621C221.54 243.607 221.448 243.592 221.356 243.577L220.817 243.484C220.729 243.467 220.641 243.451 220.555 243.434L220.049 243.328C219.967 243.31 219.885 243.291 219.805 243.272L219.335 243.155L219.335 243.155L218.891 243.031C217.096 242.499 216 241.791 216 241.012C216 240.892 216.026 240.774 216.077 240.658C216.054 240.658 216.027 240.654 216 240.645L226.366 206.697C226.564 206.037 227.006 205.805 227.355 206.178Z"/>
</clipPath>
<g clip-path="url(#ClipPath_4)">
<path d="M239 241.477L231 245C230.973 245.001 226.935 206.034 227 206.247C227.555 205.918 227.888 205.918 228 206.247C230.555 213.747 234.221 225.49 239 241.477Z" fill="#108bfe" fill-rule="evenodd" opacity="1" stroke="none"/>
</g>
</g>
</g>
</g>
<g opacity="1">
<clipPath id="ClipPath_5">
<path d="M159.5 279.633C253 278.633 272 251.633 280.216 210.092C287 163.633 234.225 150.633 167 150.633C128 150.633 118.992 122.273 93 105.633C57.6854 83.025 20 77.6335 20 140.133C20 261.633 82.4652 280.457 159.5 279.633Z"/>
</clipPath>
<g clip-path="url(#ClipPath_5)">
<path d="M186 245.999C186 244.895 189.134 243.999 193 243.999C196.866 243.999 200 244.895 200 245.999C200 247.104 196.866 247.999 193 247.999C189.134 247.999 186 247.104 186 245.999Z" fill="url(#RadialGradient_2)" fill-rule="evenodd" opacity="1" stroke="none"/>
</g>
</g>
<g opacity="1">
<clipPath id="ClipPath_6">
<path d="M159.5 279.633C253 278.633 272 251.633 280.216 210.092C287 163.633 234.225 150.633 167 150.633C128 150.633 118.992 122.273 93 105.633C57.6854 83.025 20 77.6335 20 140.133C20 261.633 82.4652 280.457 159.5 279.633Z"/>
</clipPath>
<g clip-path="url(#ClipPath_6)">
<path d="M112 232.999C112 231.895 115.134 230.999 119 230.999C122.866 230.999 126 231.895 126 232.999C126 234.104 122.866 234.999 119 234.999C115.134 234.999 112 234.104 112 232.999Z" fill="url(#RadialGradient_3)" fill-rule="evenodd" opacity="1" stroke="none"/>
</g>
</g>
<g opacity="1">
<clipPath id="ClipPath_7">
<path d="M159.5 279.633C253 278.633 272 251.633 280.216 210.092C287 163.633 234.225 150.633 167 150.633C128 150.633 118.992 122.273 93 105.633C57.6854 83.025 20 77.6335 20 140.133C20 261.633 82.4652 280.457 159.5 279.633Z"/>
</clipPath>
<g clip-path="url(#ClipPath_7)">
<path d="M80.6777 219.075C80.735 219.127 80.7824 219.202 80.8148 219.293L86 233.592L85.9616 233.593C85.987 233.642 86 233.691 86 233.742C86 234.07 85.4521 234.368 84.5544 234.592L84.3324 234.644L84.3324 234.644L84.0975 234.694L84.0975 234.694L83.8504 234.74C83.8082 234.747 83.7655 234.754 83.7224 234.762L83.4581 234.803C83.4132 234.809 83.3678 234.816 83.3219 234.822L83.0418 234.858L83.0418 234.858L82.752 234.89L82.752 234.89L82.4529 234.918C82.4023 234.923 82.3514 234.927 82.3001 234.931L81.9885 234.953L81.9885 234.953L81.6691 234.972C81.6153 234.974 81.5612 234.977 81.5068 234.979L81.1771 234.991L81.1771 234.991L80.8413 234.998L80.8413 234.998L80.5 235L80.5 235L80.1587 234.998L80.1587 234.998L79.8229 234.991L79.8229 234.991L79.4932 234.979L79.4932 234.979L79.1703 234.963L79.1703 234.963L78.8548 234.943C78.8028 234.939 78.7512 234.935 78.6999 234.931L78.3965 234.905L78.3965 234.905L78.102 234.874L78.102 234.874L77.8169 234.84C77.7702 234.834 77.7239 234.828 77.6781 234.822L77.4084 234.783C77.3643 234.776 77.3207 234.769 77.2776 234.762L77.0246 234.717C76.9835 234.709 76.9428 234.702 76.9026 234.694L76.6677 234.644L76.6677 234.644L76.4456 234.592C75.5479 234.368 75 234.07 75 233.742C75 233.691 75.0131 233.642 75.0384 233.593C75.0272 233.593 75.0136 233.591 75 233.587L80.1831 219.293C80.2818 219.016 80.5032 218.918 80.6777 219.075Z" fill="#78beff" fill-opacity="0.821326" fill-rule="evenodd" opacity="1" stroke="none"/>
<g opacity="1">
<clipPath id="ClipPath_8">
<path d="M80.6777 219.075C80.735 219.127 80.7824 219.202 80.8148 219.293L86 233.592L85.9616 233.593C85.987 233.642 86 233.691 86 233.742C86 234.07 85.4521 234.368 84.5544 234.592L84.3324 234.644L84.3324 234.644L84.0975 234.694L84.0975 234.694L83.8504 234.74C83.8082 234.747 83.7655 234.754 83.7224 234.762L83.4581 234.803C83.4132 234.809 83.3678 234.816 83.3219 234.822L83.0418 234.858L83.0418 234.858L82.752 234.89L82.752 234.89L82.4529 234.918C82.4023 234.923 82.3514 234.927 82.3001 234.931L81.9885 234.953L81.9885 234.953L81.6691 234.972C81.6153 234.974 81.5612 234.977 81.5068 234.979L81.1771 234.991L81.1771 234.991L80.8413 234.998L80.8413 234.998L80.5 235L80.5 235L80.1587 234.998L80.1587 234.998L79.8229 234.991L79.8229 234.991L79.4932 234.979L79.4932 234.979L79.1703 234.963L79.1703 234.963L78.8548 234.943C78.8028 234.939 78.7512 234.935 78.6999 234.931L78.3965 234.905L78.3965 234.905L78.102 234.874L78.102 234.874L77.8169 234.84C77.7702 234.834 77.7239 234.828 77.6781 234.822L77.4084 234.783C77.3643 234.776 77.3207 234.769 77.2776 234.762L77.0246 234.717C76.9835 234.709 76.9428 234.702 76.9026 234.694L76.6677 234.644L76.6677 234.644L76.4456 234.592C75.5479 234.368 75 234.07 75 233.742C75 233.691 75.0131 233.642 75.0384 233.593C75.0272 233.593 75.0136 233.591 75 233.587L80.1831 219.293C80.2818 219.016 80.5032 218.918 80.6777 219.075Z"/>
</clipPath>
<g clip-path="url(#ClipPath_8)">
<path d="M86 234.464L82.0003 236C81.9865 236 79.968 219.015 80.0004 219.108C80.2776 218.964 80.4443 218.964 80.5004 219.108C81.7775 222.377 83.6108 227.496 86 234.464Z" fill="#108bfe" fill-rule="evenodd" opacity="1" stroke="none"/>
</g>
</g>
</g>
</g>
</g>
</g>
<g opacity="1">
<clipPath id="ClipPath_9">
<path d="M0 0L300 0L300 0L300 300L300 300L0 300L0 300L0 0L0 0Z"/>
</clipPath>
<g clip-path="url(#ClipPath_9)">
<path d="M105 74.5L70 91.6667L70 114.333L239 117L239 91.6667L212 74.5L105 74.5Z" fill="url(#LinearGradient_2)" fill-rule="evenodd" opacity="1" stroke="none"/>
<path d="M105 75.5L105 92.5L71 92.5L105 75.5Z" fill="url(#LinearGradient_3)" fill-rule="evenodd" opacity="1" stroke="none"/>
<path d="M212 75.5L212 93.5L238 93.5L212 75.5Z" fill="url(#LinearGradient_4)" fill-rule="evenodd" opacity="1" stroke="none"/>
<path d="M131 107C131 109.209 132.791 111 135 111L170 111C172.209 111 174 109.209 174 107L174 93L239 93L239 175C239 180.523 234.523 185 229 185L80 185C74.4772 185 70 180.523 70 175L70 93L131 93L131 107Z" fill="url(#LinearGradient_5)" fill-rule="evenodd" opacity="1" stroke="none"/>
<path d="M105 74.5L70 92.5L130.264 93L129.881 106.89C129.82 109.098 131.561 110.938 133.769 110.998C133.806 110.999 133.842 111 133.879 111L169.109 111C171.275 111 173.048 109.276 173.107 107.11L173.496 93L173.496 93L239 92.5L212 74.5L105 74.5Z" fill="url(#LinearGradient_6)" fill-rule="evenodd" opacity="1" stroke="none"/>
<path d="M144 90C170 68.3333 177.333 55.5 166 51.5C154.546 47.4572 149.387 62.7313 157 66.5C161.384 68.6703 171.422 68.0198 178 64C190 56.6667 200.667 48.5 210 39.5" fill="none" opacity="1" stroke="#44baff" stroke-dasharray="5.0" stroke-linecap="round" stroke-linejoin="round" stroke-width="2"/>
<g opacity="1">
<path d="M197 18L252 8L236 44L197 18Z" fill="#42ceff" fill-opacity="0.748273" fill-rule="evenodd" opacity="1" stroke="none"/>
<path d="M212 28L213 43L251 9L212 28Z" fill="#1269c6" fill-rule="evenodd" opacity="1" stroke="none"/>
</g>
<g opacity="1">
<path d="M139 40.7222L113 36L120.564 53L139 40.7222Z" fill="#42ceff" fill-opacity="0.746486" fill-rule="evenodd" opacity="1" stroke="none"/>
<path d="M132 45.9412L131.538 53L114 37L132 45.9412Z" fill="#1269c6" fill-opacity="0.837166" fill-rule="evenodd" opacity="1" stroke="none"/>
</g>
</g>
</g>
</g>
</g>
</svg>
