<?xml version="1.0" encoding="UTF-8" standalone="no"?>
<!DOCTYPE svg PUBLIC "-//W3C//DTD SVG 1.1//EN" "http://www.w3.org/Graphics/SVG/1.1/DTD/svg11.dtd">
<!-- Created with Vectornator (http://vectornator.io/) -->
<svg height="100%" stroke-miterlimit="10" style="fill-rule:nonzero;clip-rule:evenodd;stroke-linecap:round;stroke-linejoin:round;" version="1.1" viewBox="0 0 301 301" width="100%" xml:space="preserve" xmlns="http://www.w3.org/2000/svg" xmlns:xlink="http://www.w3.org/1999/xlink">
<defs>
<linearGradient gradientTransform="matrix(1 0 0 1 0 0)" gradientUnits="userSpaceOnUse" id="LinearGradient" x1="20" x2="280.804" y1="185.829" y2="185.829">
<stop offset="0" stop-color="#108bfe" stop-opacity="0.298623"/>
<stop offset="1" stop-color="#108bfe" stop-opacity="0.101481"/>
</linearGradient>
<radialGradient cx="150.5" cy="327.5" gradientTransform="matrix(1 0 0 1 0 0)" gradientUnits="userSpaceOnUse" id="RadialGradient" r="172.5">
<stop offset="0" stop-color="#108bfe" stop-opacity="0.618635"/>
<stop offset="1" stop-color="#ffffff" stop-opacity="0.0420673"/>
</radialGradient>
<radialGradient cx="193" cy="246.999" gradientTransform="matrix(1 0 0 1 0 0)" gradientUnits="userSpaceOnUse" id="RadialGradient_2" r="7">
<stop offset="0" stop-color="#108bfe"/>
<stop offset="1" stop-color="#78beff"/>
</radialGradient>
<radialGradient cx="119" cy="233.999" gradientTransform="matrix(1 0 0 1 0 0)" gradientUnits="userSpaceOnUse" id="RadialGradient_3" r="7">
<stop offset="0" stop-color="#108bfe"/>
<stop offset="1" stop-color="#78beff"/>
</radialGradient>
<path d="M80.6777 220.075C80.735 220.127 80.7824 220.202 80.8148 220.293L86 234.592L85.9616 234.593C85.987 234.642 86 234.691 86 234.742C86 235.07 85.4521 235.368 84.5544 235.592L84.3324 235.644L84.3324 235.644L84.0975 235.694L84.0975 235.694L83.8504 235.74C83.8082 235.747 83.7655 235.754 83.7224 235.762L83.4581 235.803C83.4132 235.809 83.3678 235.816 83.3219 235.822L83.0418 235.858L83.0418 235.858L82.752 235.89L82.752 235.89L82.4529 235.918C82.4023 235.923 82.3514 235.927 82.3001 235.931L81.9885 235.953L81.9885 235.953L81.6691 235.972C81.6153 235.974 81.5612 235.977 81.5068 235.979L81.1771 235.991L81.1771 235.991L80.8413 235.998L80.8413 235.998L80.5 236L80.5 236L80.1587 235.998L80.1587 235.998L79.8229 235.991L79.8229 235.991L79.4932 235.979L79.4932 235.979L79.1703 235.963L79.1703 235.963L78.8548 235.943C78.8028 235.939 78.7512 235.935 78.6999 235.931L78.3965 235.905L78.3965 235.905L78.102 235.874L78.102 235.874L77.8169 235.84C77.7702 235.834 77.7239 235.828 77.6781 235.822L77.4084 235.783C77.3643 235.776 77.3207 235.769 77.2776 235.762L77.0246 235.717C76.9835 235.709 76.9428 235.702 76.9026 235.694L76.6677 235.644L76.6677 235.644L76.4456 235.592C75.5479 235.368 75 235.07 75 234.742C75 234.691 75.0131 234.642 75.0384 234.593C75.0272 234.593 75.0136 234.591 75 234.587L80.1831 220.293C80.2818 220.016 80.5032 219.918 80.6777 220.075Z" id="Fill"/>
<linearGradient gradientTransform="matrix(1 0 0 1 0 0)" gradientUnits="userSpaceOnUse" id="LinearGradient_2" x1="228.019" x2="247.981" y1="122.506" y2="122.506">
<stop offset="0" stop-color="#a7e0ff" stop-opacity="0.224991"/>
<stop offset="0.987604" stop-color="#a1e7ff" stop-opacity="0.637867"/>
</linearGradient>
<linearGradient gradientTransform="matrix(1 0 0 1 0 0)" gradientUnits="userSpaceOnUse" id="LinearGradient_3" x1="228.019" x2="244.829" y1="122.506" y2="122.506">
<stop offset="0" stop-color="#07c8ff" stop-opacity="0.460187"/>
<stop offset="1" stop-color="#108bfe" stop-opacity="0.828328"/>
</linearGradient>
<linearGradient gradientTransform="matrix(1 0 0 1 0 0)" gradientUnits="userSpaceOnUse" id="LinearGradient_4" x1="76.2025" x2="222.241" y1="112" y2="112">
<stop offset="0" stop-color="#a7e0ff" stop-opacity="0.681795"/>
<stop offset="0.97764" stop-color="#a1e7ff" stop-opacity="0.687058"/>
</linearGradient>
<linearGradient gradientTransform="matrix(1 0 0 1 0 0)" gradientUnits="userSpaceOnUse" id="LinearGradient_5" x1="72" x2="213.289" y1="114.1" y2="114.1">
<stop offset="0" stop-color="#07c8ff" stop-opacity="0.238778"/>
<stop offset="0.997306" stop-color="#108bfe" stop-opacity="0.739667"/>
</linearGradient>
</defs>
<g id="页面-1">
<g opacity="1">
<g opacity="1">
<clipPath id="ClipPath">
<path d="M0.5 0.5L300.5 0.5L300.5 0.5L300.5 300.5L300.5 300.5L0.5 300.5L0.5 300.5L0.5 0.5L0.5 0.5Z"/>
</clipPath>
<g clip-path="url(#ClipPath)">
<path d="M159.5 280.633C253 279.633 272 252.633 280.216 211.092C287 164.633 234.225 151.633 167 151.633C128 151.633 118.992 123.273 93 106.633C57.6854 84.025 20 78.6335 20 141.133C20 262.633 82.4652 281.457 159.5 280.633Z" fill="url(#LinearGradient)" fill-rule="evenodd" opacity="1" stroke="none"/>
<g opacity="1">
<clipPath id="ClipPath_2">
<path d="M159.5 280.633C253 279.633 272 252.633 280.216 211.092C287 164.633 234.225 151.633 167 151.633C128 151.633 118.992 123.273 93 106.633C57.6854 84.025 20 78.6335 20 141.133C20 262.633 82.4652 281.457 159.5 280.633Z"/>
</clipPath>
<g clip-path="url(#ClipPath_2)">
<path d="M-22 327.5C-22 270.062 55.2309 223.5 150.5 223.5C245.769 223.5 323 270.062 323 327.5C323 384.938 245.769 431.5 150.5 431.5C55.2309 431.5-22 384.938-22 327.5Z" fill="url(#RadialGradient)" fill-rule="evenodd" opacity="1" stroke="none"/>
</g>
</g>
<g opacity="1">
<clipPath id="ClipPath_3">
<path d="M159.5 280.633C253 279.633 272 252.633 280.216 211.092C287 164.633 234.225 151.633 167 151.633C128 151.633 118.992 123.273 93 106.633C57.6854 84.025 20 78.6335 20 141.133C20 262.633 82.4652 281.457 159.5 280.633Z"/>
</clipPath>
<g clip-path="url(#ClipPath_3)">
<path d="M227.355 207.178C227.47 207.301 227.565 207.48 227.63 207.697L238 241.657L237.923 241.658C237.974 241.774 238 241.892 238 242.012C238 242.791 236.904 243.499 235.109 244.031L234.665 244.155L234.665 244.155L234.195 244.272L234.195 244.272L233.701 244.382C233.616 244.4 233.531 244.417 233.445 244.434L232.916 244.532C232.826 244.547 232.736 244.562 232.644 244.577L232.084 244.662L232.084 244.662L231.504 244.739L231.504 244.739L230.906 244.806C230.805 244.817 230.703 244.827 230.6 244.836L229.977 244.889L229.977 244.889L229.338 244.932C229.231 244.939 229.122 244.945 229.014 244.95L228.354 244.978L228.354 244.978L227.683 244.994L227.683 244.994L227 245L227 245L226.317 244.994L226.317 244.994L225.646 244.978L225.646 244.978L224.986 244.95L224.986 244.95L224.341 244.912L224.341 244.912L223.709 244.864C223.606 244.855 223.502 244.846 223.4 244.836L222.793 244.774L222.793 244.774L222.204 244.702L222.204 244.702L221.634 244.621C221.54 244.607 221.448 244.592 221.356 244.577L220.817 244.484C220.729 244.467 220.641 244.451 220.555 244.434L220.049 244.328C219.967 244.31 219.885 244.291 219.805 244.272L219.335 244.155L219.335 244.155L218.891 244.031C217.096 243.499 216 242.791 216 242.012C216 241.892 216.026 241.774 216.077 241.658C216.054 241.658 216.027 241.654 216 241.645L226.366 207.697C226.564 207.037 227.006 206.805 227.355 207.178Z" fill="#78beff" fill-opacity="0.86323" fill-rule="evenodd" opacity="1" stroke="none"/>
<g opacity="1">
<clipPath id="ClipPath_4">
<path d="M227.355 207.178C227.47 207.301 227.565 207.48 227.63 207.697L238 241.657L237.923 241.658C237.974 241.774 238 241.892 238 242.012C238 242.791 236.904 243.499 235.109 244.031L234.665 244.155L234.665 244.155L234.195 244.272L234.195 244.272L233.701 244.382C233.616 244.4 233.531 244.417 233.445 244.434L232.916 244.532C232.826 244.547 232.736 244.562 232.644 244.577L232.084 244.662L232.084 244.662L231.504 244.739L231.504 244.739L230.906 244.806C230.805 244.817 230.703 244.827 230.6 244.836L229.977 244.889L229.977 244.889L229.338 244.932C229.231 244.939 229.122 244.945 229.014 244.95L228.354 244.978L228.354 244.978L227.683 244.994L227.683 244.994L227 245L227 245L226.317 244.994L226.317 244.994L225.646 244.978L225.646 244.978L224.986 244.95L224.986 244.95L224.341 244.912L224.341 244.912L223.709 244.864C223.606 244.855 223.502 244.846 223.4 244.836L222.793 244.774L222.793 244.774L222.204 244.702L222.204 244.702L221.634 244.621C221.54 244.607 221.448 244.592 221.356 244.577L220.817 244.484C220.729 244.467 220.641 244.451 220.555 244.434L220.049 244.328C219.967 244.31 219.885 244.291 219.805 244.272L219.335 244.155L219.335 244.155L218.891 244.031C217.096 243.499 216 242.791 216 242.012C216 241.892 216.026 241.774 216.077 241.658C216.054 241.658 216.027 241.654 216 241.645L226.366 207.697C226.564 207.037 227.006 206.805 227.355 207.178Z"/>
</clipPath>
<g clip-path="url(#ClipPath_4)">
<path d="M239 242.477L231 246C230.973 246.001 226.935 207.034 227 207.247C227.555 206.918 227.888 206.918 228 207.247C230.555 214.747 234.221 226.49 239 242.477Z" fill="#108bfe" fill-rule="evenodd" opacity="1" stroke="none"/>
</g>
</g>
</g>
</g>
<g opacity="1">
<clipPath id="ClipPath_5">
<path d="M159.5 280.633C253 279.633 272 252.633 280.216 211.092C287 164.633 234.225 151.633 167 151.633C128 151.633 118.992 123.273 93 106.633C57.6854 84.025 20 78.6335 20 141.133C20 262.633 82.4652 281.457 159.5 280.633Z"/>
</clipPath>
<g clip-path="url(#ClipPath_5)">
<path d="M186 246.999C186 245.895 189.134 244.999 193 244.999C196.866 244.999 200 245.895 200 246.999C200 248.104 196.866 248.999 193 248.999C189.134 248.999 186 248.104 186 246.999Z" fill="url(#RadialGradient_2)" fill-rule="evenodd" opacity="1" stroke="none"/>
</g>
</g>
<g opacity="1">
<clipPath id="ClipPath_6">
<path d="M159.5 280.633C253 279.633 272 252.633 280.216 211.092C287 164.633 234.225 151.633 167 151.633C128 151.633 118.992 123.273 93 106.633C57.6854 84.025 20 78.6335 20 141.133C20 262.633 82.4652 281.457 159.5 280.633Z"/>
</clipPath>
<g clip-path="url(#ClipPath_6)">
<path d="M112 233.999C112 232.895 115.134 231.999 119 231.999C122.866 231.999 126 232.895 126 233.999C126 235.104 122.866 235.999 119 235.999C115.134 235.999 112 235.104 112 233.999Z" fill="url(#RadialGradient_3)" fill-rule="evenodd" opacity="1" stroke="none"/>
</g>
</g>
<g opacity="1">
<clipPath id="ClipPath_7">
<path d="M159.5 280.633C253 279.633 272 252.633 280.216 211.092C287 164.633 234.225 151.633 167 151.633C128 151.633 118.992 123.273 93 106.633C57.6854 84.025 20 78.6335 20 141.133C20 262.633 82.4652 281.457 159.5 280.633Z"/>
</clipPath>
<g clip-path="url(#ClipPath_7)">
<path d="M80.6777 220.075C80.735 220.127 80.7824 220.202 80.8148 220.293L86 234.592L85.9616 234.593C85.987 234.642 86 234.691 86 234.742C86 235.07 85.4521 235.368 84.5544 235.592L84.3324 235.644L84.3324 235.644L84.0975 235.694L84.0975 235.694L83.8504 235.74C83.8082 235.747 83.7655 235.754 83.7224 235.762L83.4581 235.803C83.4132 235.809 83.3678 235.816 83.3219 235.822L83.0418 235.858L83.0418 235.858L82.752 235.89L82.752 235.89L82.4529 235.918C82.4023 235.923 82.3514 235.927 82.3001 235.931L81.9885 235.953L81.9885 235.953L81.6691 235.972C81.6153 235.974 81.5612 235.977 81.5068 235.979L81.1771 235.991L81.1771 235.991L80.8413 235.998L80.8413 235.998L80.5 236L80.5 236L80.1587 235.998L80.1587 235.998L79.8229 235.991L79.8229 235.991L79.4932 235.979L79.4932 235.979L79.1703 235.963L79.1703 235.963L78.8548 235.943C78.8028 235.939 78.7512 235.935 78.6999 235.931L78.3965 235.905L78.3965 235.905L78.102 235.874L78.102 235.874L77.8169 235.84C77.7702 235.834 77.7239 235.828 77.6781 235.822L77.4084 235.783C77.3643 235.776 77.3207 235.769 77.2776 235.762L77.0246 235.717C76.9835 235.709 76.9428 235.702 76.9026 235.694L76.6677 235.644L76.6677 235.644L76.4456 235.592C75.5479 235.368 75 235.07 75 234.742C75 234.691 75.0131 234.642 75.0384 234.593C75.0272 234.593 75.0136 234.591 75 234.587L80.1831 220.293C80.2818 220.016 80.5032 219.918 80.6777 220.075Z" fill="#78beff" fill-opacity="0.842362" fill-rule="evenodd" opacity="1" stroke="none"/>
<g opacity="1">
<use fill="#108bfe" fill-opacity="0.863524" fill-rule="evenodd" opacity="1" stroke="none" xlink:href="#Fill"/>
<clipPath id="ClipPath_8">
<use xlink:href="#Fill"/>
</clipPath>
<g clip-path="url(#ClipPath_8)">
<path d="M86 235.464L82.0003 237C81.9865 237 79.968 220.015 80.0004 220.108C80.2776 219.964 80.4443 219.964 80.5004 220.108C81.7775 223.377 83.6108 228.496 86 235.464Z" fill="#108bfe" fill-opacity="0.863524" fill-rule="evenodd" opacity="1" stroke="none"/>
</g>
</g>
</g>
</g>
</g>
</g>
<g opacity="1">
<clipPath id="ClipPath_9">
<path d="M0.5 0.5L300.5 0.5L300.5 0.5L300.5 300.5L300.5 300.5L0.5 300.5L0.5 300.5L0.5 0.5L0.5 0.5Z"/>
</clipPath>
<g clip-path="url(#ClipPath_9)">
<path d="M238 87.8354C243.512 87.8354 247.981 92.3041 247.981 97.8165L247.981 146.671C247.981 152.473 243.277 157.177 237.475 157.177L228.019 157.177L228.019 157.177L228.019 97.8165C228.019 92.3041 232.488 87.8354 238 87.8354Z" fill="url(#LinearGradient_2)" fill-rule="evenodd" opacity="1" stroke="none"/>
<path d="M236.424 87.8354C241.066 87.8354 244.829 91.5985 244.829 96.2405L244.829 130.27L244.829 146.671C244.829 152.473 240.125 157.177 234.323 157.177L228.019 157.177L228.019 157.177L228.019 96.2405C228.019 91.5985 231.782 87.8354 236.424 87.8354Z" fill="url(#LinearGradient_3)" fill-rule="evenodd" opacity="1" stroke="none"/>
<path d="M236.949 87.8337C232.017 87.8337 228.019 91.832 228.019 96.7641L228.019 96.7641L228.019 159.277L228.193 159.275L228.194 183.616C228.194 189.804 223.256 194.839 217.106 194.995L216.812 194.998C210.526 194.998 205.43 189.902 205.43 183.616L205.43 183.616L205.43 87.8337L236.949 87.8337Z" fill="#81d8ff" fill-opacity="0.686326" fill-rule="evenodd" opacity="1" stroke="none"/>
<path d="M100.367 29L182.614 29C196.54 29 207.829 40.2892 207.829 54.2152L207.829 184.413L207.829 184.413C207.829 190.828 212.633 194.036 222.241 194.036C219.678 194.679 217.116 195 214.554 195C187.565 195 147.096 193.811 93.1453 191.433C89.4739 191.272 83.8263 185.794 76.2025 175L76.2025 53.1646C76.2025 39.8188 87.0214 29 100.367 29Z" fill="url(#LinearGradient_4)" fill-rule="evenodd" opacity="1" stroke="none"/>
<path d="M179.178 33.2008C192.523 33.2008 203.342 44.0196 203.342 57.3654L203.342 57.3654L203.342 87.8328L203.329 87.8337L203.329 183.616C203.329 189.421 207.674 194.211 213.289 194.91C212.779 194.969 212.26 194.998 211.734 194.998L211.734 194.998L96.1646 194.998C82.8188 194.998 72 184.179 72 170.834L72 170.834L72 57.3654C72 44.0196 82.8188 33.2008 96.1646 33.2008L96.1646 33.2008L179.178 33.2008Z" fill="url(#LinearGradient_5)" fill-rule="evenodd" opacity="1" stroke="none"/>
<path d="M105.62 73.1266L164.456 73.1266C167.357 73.1266 169.709 75.4785 169.709 78.3797L169.709 78.3797C169.709 81.281 167.357 83.6329 164.456 83.6329L105.62 83.6329C102.719 83.6329 100.367 81.281 100.367 78.3797L100.367 78.3797C100.367 75.4785 102.719 73.1266 105.62 73.1266Z" fill="#ffffff" fill-opacity="0.90583" fill-rule="evenodd" opacity="1" stroke="none"/>
<path d="M106.671 102.544L164.456 102.544C167.357 102.544 169.709 104.896 169.709 107.797L169.709 107.797C169.709 110.699 167.357 113.051 164.456 113.051L106.671 113.051C103.77 113.051 101.418 110.699 101.418 107.797L101.418 107.797C101.418 104.896 103.77 102.544 106.671 102.544Z" fill="#ffffff" fill-opacity="0.906333" fill-rule="evenodd" opacity="1" stroke="none"/>
<path d="M106.146 131.962L132.411 131.962C135.603 131.962 138.19 134.549 138.19 137.741L138.19 137.741C138.19 140.932 135.603 143.519 132.411 143.519L106.146 143.519C102.954 143.519 100.367 140.932 100.367 137.741L100.367 137.741C100.367 134.549 102.954 131.962 106.146 131.962Z" fill="#ffffff" fill-opacity="0.92444" fill-rule="evenodd" opacity="1" stroke="none"/>
</g>
</g>
</g>
</g>
</svg>
